<svg t="1733709807195" class="icon" viewBox="0 0 1024 1024" version="1.1" xmlns="http://www.w3.org/2000/svg" p-id="17288" width="22" height="22"><path d="M513.4 66.2c-246.9 0-447 200.1-447 447s200.1 447 447 447 447-200.1 447-447-200.1-447-447-447zM438 509.3L454.6 725c0.4 2.5 0.6 5 0.6 7.5 0 27-21.9 48.9-48.9 48.9s-49-21.9-49-48.9c0-2.5 0.2-5.1 0.6-7.5l16.5-215.7c-58.1-11.1-90.6-50.8-90.6-70.5 0-55.8 24.5-171.3 24.5-171.3v-12.2c-0.1-4.5 2.2-8.5 6-10.8 3.9-2.2 8.5-2.2 12.4 0 3.9 2.2 6.1 6.4 6 10.8v134.6c0 6.7 1.7 24.5 24.4 24.5 23.5 0 24.5-17.8 24.5-24.5V249.1l24.5-6.1 24.5 6.1v140.8c0 6.7 1.7 24.5 24.5 24.5 23.5 0 24.5-17.8 24.5-24.5V255.2c-0.1-4.5 2.2-8.6 6-10.9 3.9-2.3 8.6-2.3 12.5 0 3.9 2.3 6.1 6.4 6 10.9 0 4.6 0.1 12.3 0.1 12.3s24.4 116.5 24.4 171.3c0 20.7-33.3 59.5-90.6 70.5z m286.4 51.9c0 44.7-48.9 48.9-48.9 48.9v122.5s0.4 28.7-14.9 41.8c-11.4 9.7-29.7 10.2-43.7 0-14.5-10.5-14.9-41.8-14.9-41.8V267.5c0-13.5 11-24.5 24.4-24.5 8.6 0 16.6 4.5 21 11.9 30.7 28.1 75.6 104.2 76.9 208.4h0.1v97.9z" p-id="17289" fill="#1296db"></path></svg>