<svg t="1733708250469" class="icon" viewBox="0 0 1024 1024" version="1.1" xmlns="http://www.w3.org/2000/svg" p-id="7576" width="22" height="22"><path d="M224.944262 463.318033L221.586885 537.180328s174.583607-57.07541 285.377049 80.577049c110.793443-134.295082 292.091803-77.219672 292.091804-77.219672l3.357377-77.219672s-144.367213-77.219672-292.091804-77.219672c-144.367213 0-285.377049 77.219672-285.377049 77.219672z" fill="#1296db" p-id="7577"></path><path d="M1020.642623 399.527869l-57.07541-33.573771v-13.429508s16.786885-80.577049-73.862295-40.288524c-3.357377 3.357377-6.714754 3.357377-6.714754 6.714754L503.606557 107.436066 3.357377 389.455738l188.013115 87.291803v-26.859016s157.796721-87.291803 318.950819-87.291804 322.308197 87.291803 322.308197 87.291804v47.003278l104.078689-53.718033V604.327869h-33.573771v80.577049l47.003279-30.216393 50.360656 33.57377v-80.577049h-36.931148v-174.583607l57.07541-33.57377z m-67.147541 3.357377c0 13.429508-10.072131 23.501639-23.501639 23.501639-13.429508 0-23.501639-10.072131-23.50164-23.501639 0-13.429508 10.072131-23.501639 23.50164-23.501639 10.072131-3.357377 23.501639 10.072131 23.501639 23.501639z m-43.645902-67.147541c10.072131-6.714754 30.216393-16.786885 30.216394 3.357377v13.429508l-30.216394-16.786885z" fill="#1296db" p-id="7578"></path><path d="M728.55082 577.468852c-80.577049 0-147.72459 50.360656-171.22623 120.865574-13.429508-10.072131-26.859016-13.429508-43.645901-13.429508s-33.57377 6.714754-43.645902 13.429508c-26.859016-70.504918-94.006557-120.865574-171.22623-120.865574-100.721311 0-181.298361 80.577049-181.29836 181.298361S194.727869 940.065574 295.44918 940.065574s181.298361-80.577049 181.298361-181.298361v-23.501639c6.714754-13.429508 20.144262-20.144262 36.931148-20.144263 16.786885 0 26.859016 10.072131 36.931147 20.144263v23.501639c0 100.721311 80.577049 181.298361 181.298361 181.298361s181.298361-80.577049 181.29836-181.298361-87.291803-181.298361-184.655737-181.298361zM295.44918 889.704918c-73.862295 0-130.937705-60.432787-130.937705-130.937705s60.432787-130.937705 130.937705-130.937705 130.937705 60.432787 130.937705 130.937705-60.432787 130.937705-130.937705 130.937705z m433.10164 0c-73.862295 0-130.937705-60.432787-130.937705-130.937705s60.432787-130.937705 130.937705-130.937705 130.937705 60.432787 130.937705 130.937705-60.432787 130.937705-130.937705 130.937705z" fill="#1296db" p-id="7579"></path></svg>