<svg t="1733738420967" class="icon" viewBox="0 0 1024 1024" version="1.1" xmlns="http://www.w3.org/2000/svg" p-id="19352" width="22" height="22"><path d="M958.464 290.816c-3.072-65.024-55.296-116.736-118.272-117.248H178.176c-62.976 3.584-112.64 57.856-112.64 122.88v436.736C68.608 798.72 120.832 849.92 183.808 849.92H845.824c62.976-3.584 112.64-57.856 112.64-122.88V290.816z m-416.768 357.376c59.392-15.36 102.4-72.192 102.4-135.68s-43.008-120.32-102.4-135.68l-0.512-139.776H844.288c29.696 2.56 52.736 29.184 52.736 60.416v39.424H834.56c-40.448 2.048-73.728 38.912-73.728 81.408v193.024c2.56 43.008 37.376 76.8 79.36 76.8H896v44.032c-2.56 30.72-26.624 54.784-55.808 55.808h-298.496v-139.776z m355.328-248.32v225.792h-58.88c-9.728-1.536-16.384-9.216-16.384-18.944V416.768c1.536-9.728 8.704-16.896 17.92-16.896h57.344z m-313.344 112.64v5.12c-2.048 28.16-17.92 52.224-41.984 64.512l-0.512-139.264c26.112 12.288 42.496 38.912 42.496 69.632z m-145.92-0.512c0-29.696 16.896-56.832 41.984-69.12l0.512 139.776c-25.6-12.8-42.496-40.448-42.496-70.656zM125.952 399.36h62.976c9.216 1.536 16.384 9.728 16.384 19.456v189.44c-1.536 10.24-8.704 17.408-17.92 17.408h-61.44V399.36z m-0.512 289.28h67.072c41.472-2.56 74.24-38.4 74.24-81.92V414.72c-2.56-43.008-37.376-76.8-79.36-76.8H125.44v-44.544c2.56-31.232 27.648-55.808 57.344-55.808h296.96v139.776c-59.904 15.36-102.912 72.192-102.912 136.192v6.656c3.072 61.44 45.056 114.176 101.888 129.024l0.512 139.776H178.688c-30.208-2.56-53.248-29.184-53.248-60.416v-39.936z" fill="#1296db" p-id="19353"></path></svg>