<svg t="1733578719911" class="icon" viewBox="0 0 1024 1024" version="1.1" xmlns="http://www.w3.org/2000/svg" p-id="4551" width="25" height="25"><path d="M679.35 675.94C752 590.1 824.61 481.15 824.61 375.5c0-171.67-140.31-310.33-312-310.33s-312 138.66-312 310.33c0 105.65 71 216.25 145.27 298.79-128.76 24.76-206.34 74.28-206.34 137 0 99 191.48 151.87 373.06 151.87s373.09-52.82 373.09-151.86c0-61.08-77.59-110.6-206.34-135.36zM251.81 375.5c0-143.61 117.2-260.81 260.81-260.81s262.47 117.2 262.47 260.81c0 156.82-201.39 345-259.17 394.53-59.42-49.52-264.11-232.75-264.11-394.53z m260.81 538.14c-199.74 0-323.54-59.42-323.54-102.34 0-29.71 67.68-72.63 191.48-92.44 1.65 0 3.3 0 4.95-1.65 57.78 61.07 109 100.69 113.91 104s9.9 5 14.85 5 11.56-1.66 14.86-5c5-3.3 52.82-44.57 109-104 127.1 18.16 194.78 61.07 194.78 92.44 3.26 44.57-118.91 103.99-320.29 103.99z" p-id="4552" fill="#d81e06"></path><path d="M709.06 378.81c0-107.3-87.49-193.14-193.14-193.14s-194.78 85.84-194.78 193.14 87.48 193.13 193.13 193.13 194.79-85.84 194.79-193.13z m-338.4 0c0-79.24 64.38-143.62 143.61-143.62 47.87 0 92.44 24.76 117.2 61.08l-132 132.06L436.69 364c-9.91-9.9-24.76-9.9-34.67 0s-9.9 24.76 0 34.67l80.89 79.23c4.95 4.95 11.55 6.6 18.16 6.6s13.2-1.65 18.15-6.6l137-137a125.68 125.68 0 0 1 5 34.66 143.72 143.72 0 0 1-143.65 143.56c-79.23 0-146.91-61.12-146.91-140.31z" p-id="4553" fill="#d81e06"></path></svg>