<svg t="1733708664182" class="icon" viewBox="0 0 1024 1024" version="1.1" xmlns="http://www.w3.org/2000/svg" p-id="15002" width="22" height="22"><path d="M533.333333 128.810667l43.008 0.149333c23.573333 0.085333 42.666667 19.413333 42.666667 42.816V213.333333H405.653333c0.298667-14.357333 0.106667-42.346667 0.106667-42.346666a42.197333 42.197333 0 0 1 42.56-42.496L490.666667 128.64V64a21.333333 21.333333 0 0 1 42.666666 0v64.810667zM726.677333 661.333333c85.482667 174.272 190.698667 277.333333 190.698667 277.333334H662.186667c-65.450667-148.181333-236.032-149.056-299.029334 0H105.088s105.173333-99.925333 191.146667-277.333334H234.666667a21.333333 21.333333 0 0 1 0-42.666666h554.666666a21.333333 21.333333 0 0 1 0 42.666666h-62.634666z m-103.872-362.666666c9.237333 102.464 34.346667 195.690667 66.304 277.333333H333.333333a1074.709333 1074.709333 0 0 0 66.986667-277.333333H362.666667a21.333333 21.333333 0 0 1 0-42.666667h298.666666a21.333333 21.333333 0 0 1 0 42.666667h-38.506666z" fill="#1296db" p-id="15003"></path></svg>